<svg xmlns="http://www.w3.org/2000/svg" width="412.844" height="44" viewBox="0 0 412.844 44">
  <defs>
    <style>
      .cls-1 {
        fill-rule: evenodd;
      }
    </style>
  </defs>
  <path class="cls-1" d="M512.809,141.95l-6.043-18.47a0.9,0.9,0,0,0-.857-0.618h-10.96a0.9,0.9,0,0,0-.9.892V129.9a0.9,0.9,0,0,0,.9.889H500.2a1.144,1.144,0,0,1,1,.7h0l3.6,11.015a0.9,0.9,0,0,0,.858.617h6.293A0.893,0.893,0,0,0,512.809,141.95Zm-20-41.2h-6.294a0.9,0.9,0,0,0-.857.615L472.372,141.95a0.894,0.894,0,0,0,.857,1.167h6.294a0.9,0.9,0,0,0,.857-0.617l13.287-40.585A0.894,0.894,0,0,0,492.81,100.748Zm-333.384,0h-6.207a0.9,0.9,0,0,0-.9.891v40.583a0.9,0.9,0,0,0,.9.891h6.207a0.9,0.9,0,0,0,.9-0.891V101.643A0.9,0.9,0,0,0,159.426,100.752Zm30.627,34.408H169.236a0.9,0.9,0,0,0-.9.89V142.2a0.9,0.9,0,0,0,.9.892h20.817a0.9,0.9,0,0,0,.9-0.892V136.05A0.9,0.9,0,0,0,190.053,135.16Zm49.587,0.029H207.872a0.9,0.9,0,0,0-.9.893v6.144a0.9,0.9,0,0,0,.9.891H239.64a0.9,0.9,0,0,0,.9-0.891v-6.144A0.9,0.9,0,0,0,239.64,135.189Zm0-17.22H207.872a0.9,0.9,0,0,0-.9.891V125a0.9,0.9,0,0,0,.9.892H239.64a0.9,0.9,0,0,0,.9-0.892V118.86A0.9,0.9,0,0,0,239.64,117.969Zm-31.778-9.294h31.769a0.9,0.9,0,0,0,.9-0.892v-6.144a0.9,0.9,0,0,0-.9-0.891H207.862a0.9,0.9,0,0,0-.9.891v6.144A0.9,0.9,0,0,0,207.862,108.675Zm68.618,11.89h-6.206a0.9,0.9,0,0,0-.9.893l0,20.768a0.9,0.9,0,0,0,.9.891h6.207a0.9,0.9,0,0,0,.9-0.891V121.458A0.9,0.9,0,0,0,276.48,120.565Zm12.78-19.817H257.492a0.9,0.9,0,0,0-.9.891v6.144a0.9,0.9,0,0,0,.9.892H289.26a0.9,0.9,0,0,0,.9-0.892v-6.144A0.9,0.9,0,0,0,289.26,100.748Zm-156.325,3.958a12.442,12.442,0,0,0-4.186-2.865,14.809,14.809,0,0,0-5.915-1.089H100.9a0.9,0.9,0,0,0-.9.891v40.583a0.9,0.9,0,0,0,.9.891h6.206a0.9,0.9,0,0,0,.9-0.891V109.493h0a0.9,0.9,0,0,1,.9-0.892h13.106a6.168,6.168,0,0,1,4.374,1.494A5.049,5.049,0,0,1,128,113.957v0.749a5.036,5.036,0,0,1-1.605,3.861,5.639,5.639,0,0,1-3.593,1.5h-5.88a0.9,0.9,0,0,0-.9.892v6.065a0.9,0.9,0,0,0,.9.892h6.7a13.433,13.433,0,0,0,5.135-1.122,12.353,12.353,0,0,0,4.186-2.958,12.521,12.521,0,0,0,2.516-4.175,13.83,13.83,0,0,0,.851-4.765v-1.5a13.159,13.159,0,0,0-.851-4.641A11.994,11.994,0,0,0,132.935,104.706Zm180.317-3.954h-6.207a0.9,0.9,0,0,0-.9.891v40.583a0.9,0.9,0,0,0,.9.891h6.207a0.9,0.9,0,0,0,.9-0.891V101.643A0.9,0.9,0,0,0,313.252,100.752Zm32.033,0h-6.207a0.9,0.9,0,0,0-.9.891V117.09a0.9,0.9,0,0,1-.9.88H327.066a0.9,0.9,0,0,0-.9.891v6.144a0.9,0.9,0,0,0,.9.892h10.21a0.9,0.9,0,0,1,.9.891v15.437a0.9,0.9,0,0,0,.9.891h6.207a0.9,0.9,0,0,0,.9-0.891V101.643A0.9,0.9,0,0,0,345.285,100.752Zm39.151-.829a22.222,22.222,0,0,0-21.028,14.861,0.9,0.9,0,0,0,.846,1.2h6.752a0.9,0.9,0,0,0,.8-0.492,14.259,14.259,0,0,1,25.264,0,0.9,0.9,0,0,0,.8.492h6.751a0.9,0.9,0,0,0,.846-1.2A22.221,22.221,0,0,0,384.436,99.923Zm20.181,27.955h-6.751a0.9,0.9,0,0,0-.8.492,14.259,14.259,0,0,1-25.264,0,0.905,0.905,0,0,0-.8-0.492h-6.752a0.9,0.9,0,0,0-.846,1.2,22.307,22.307,0,0,0,42.055,0A0.9,0.9,0,0,0,404.617,127.878Zm49.372-23.736a11.751,11.751,0,0,0-4.158-2.494,16.9,16.9,0,0,0-5.768-.9l-20.476,0a0.9,0.9,0,0,0-.9.891v40.583a0.9,0.9,0,0,0,.9.891h6.206a0.9,0.9,0,0,0,.9-0.891V109.56a0.9,0.9,0,0,1,.9-0.885h11.861a5.971,5.971,0,0,1,4.432,1.532,4.99,4.99,0,0,1,1.518,3.635V114.9a4.84,4.84,0,0,1-1.518,3.815,5.8,5.8,0,0,1-3.679,1.353h-4.63a0.869,0.869,0,0,0-.873.867l0.019,5.844a0.87,0.87,0,0,0,.874.861h6.188a2.69,2.69,0,0,1,1.767.9,3.517,3.517,0,0,1,.759,2.344v11.363a0.869,0.869,0,0,0,.873.863h6.253a0.869,0.869,0,0,0,.873-0.863V128.962a5.017,5.017,0,0,0-1.244-3.485,5.1,5.1,0,0,0-3.355-1.623v-0.525a0.869,0.869,0,0,1,.516-0.783,8.591,8.591,0,0,0,3.794-3.229,9.027,9.027,0,0,0,1.4-4.839v-2.133a11.579,11.579,0,0,0-.881-4.507A10.877,10.877,0,0,0,453.989,104.142Z" transform="translate(-100 -99.938)"/>
</svg>
